HIERARCHY
ROOT Hips
{
    OFFSET   0.000000   0.000000   0.000000
    CHANNELS 6 Xposition Yposition Zposition Zrotation Xrotation Yrotation
    JOINT Chest
    {
        OFFSET   0.000000   8.007240   0.000000
        CHANNELS 3 Zrotation Xrotation Yrotation
        JOINT Chest2
        {
            OFFSET   0.000000  22.077100   0.000000
            CHANNELS 3 Zrotation Xrotation Yrotation
            JOINT Neck
            {
                OFFSET   0.000000  23.254800   0.000000
                CHANNELS 3 Zrotation Xrotation Yrotation
                JOINT Head
                {
                    OFFSET   0.000000  14.370000   1.956600
                    CHANNELS 3 Zrotation Xrotation Yrotation
                    End Site
                    {
                        OFFSET   0.000000  19.566000   0.000000
                    }
                }
            }
            JOINT LeftCollar
            {
                OFFSET   3.911900  19.017000  -0.467064
                CHANNELS 3 Zrotation Xrotation Yrotation
                JOINT LeftShoulder
                {
                    OFFSET  10.383700   0.000000   0.000000
                    CHANNELS 3 Zrotation Xrotation Yrotation
                    JOINT LeftElbow
                    {
                        OFFSET  26.662100   0.001476   0.000517
                        CHANNELS 3 Zrotation Xrotation Yrotation
                        JOINT LeftWrist
                        {
                            OFFSET  28.869000  -0.000025  -0.000106
                            CHANNELS 3 Zrotation Xrotation Yrotation
                            JOINT LeftFinger0
                            {
                                OFFSET   2.044660  -2.323460   3.252850
                                CHANNELS 3 Zrotation Xrotation Yrotation
                                JOINT LeftFinger01
                                {
                                    OFFSET   3.088130   0.000000   0.000000
                                    CHANNELS 3 Zrotation Xrotation Yrotation
                                    JOINT LeftFinger02
                                    {
                                        OFFSET   2.639460   0.000000   0.000000
                                        CHANNELS 3 Zrotation Xrotation Yrotation
                                        End Site
                                        {
                                            OFFSET   2.582190   0.000000   0.000000
                                        }
                                    }
                                }
                            }
                            JOINT LeftFinger1
                            {
                                OFFSET   8.364480   0.000000   3.252850
                                CHANNELS 3 Zrotation Xrotation Yrotation
                                JOINT LeftFinger11
                                {
                                    OFFSET   4.646930   0.000000   0.000000
                                    CHANNELS 3 Zrotation Xrotation Yrotation
                                    JOINT LeftFinger12
                                    {
                                        OFFSET   2.323460   0.000000   0.000000
                                        CHANNELS 3 Zrotation Xrotation Yrotation
                                        End Site
                                        {
                                            OFFSET   2.273050   0.000000   0.000000
                                        }
                                    }
                                }
                            }
                            JOINT LeftFinger2
                            {
                                OFFSET   8.364490   0.000015   1.078090
                                CHANNELS 3 Zrotation Xrotation Yrotation
                                JOINT LeftFinger21
                                {
                                    OFFSET   5.111620   0.000000   0.000000
                                    CHANNELS 3 Zrotation Xrotation Yrotation
                                    JOINT LeftFinger22
                                    {
                                        OFFSET   2.788160   0.000016   0.000000
                                        CHANNELS 3 Zrotation Xrotation Yrotation
                                        End Site
                                        {
                                            OFFSET   2.727660   0.000000   0.000000
                                        }
                                    }
                                }
                            }
                            JOINT LeftFinger3
                            {
                                OFFSET   7.899780   0.000017  -1.078090
                                CHANNELS 3 Zrotation Xrotation Yrotation
                                JOINT LeftFinger31
                                {
                                    OFFSET   4.646930   0.000000   0.000000
                                    CHANNELS 3 Zrotation Xrotation Yrotation
                                    JOINT LeftFinger32
                                    {
                                        OFFSET   2.323470   0.000000   0.000000
                                        CHANNELS 3 Zrotation Xrotation Yrotation
                                        End Site
                                        {
                                            OFFSET   2.273050   0.000000   0.000000
                                        }
                                    }
                                }
                            }
                            JOINT LeftFinger4
                            {
                                OFFSET   7.435090   0.000000  -3.252850
                                CHANNELS 3 Zrotation Xrotation Yrotation
                                JOINT LeftFinger41
                                {
                                    OFFSET   3.717550   0.000000   0.000000
                                    CHANNELS 3 Zrotation Xrotation Yrotation
                                    JOINT LeftFinger42
                                    {
                                        OFFSET   1.858770   0.000000   0.000000
                                        CHANNELS 3 Zrotation Xrotation Yrotation
                                        End Site
                                        {
                                            OFFSET   1.818440   0.000000   0.000000
                                        }
                                    }
                                }
                            }
                        }
                    }
                }
            }
            JOINT RightCollar
            {
                OFFSET  -3.911900  19.017000  -0.467063
                CHANNELS 3 Zrotation Xrotation Yrotation
                JOINT RightShoulder
                {
                    OFFSET -10.383700   0.000019   0.000000
                    CHANNELS 3 Zrotation Xrotation Yrotation
                    JOINT RightElbow
                    {
                        OFFSET -26.662100   0.001175   0.000102
                        CHANNELS 3 Zrotation Xrotation Yrotation
                        JOINT RightWrist
                        {
                            OFFSET -28.869000   0.000016  -0.000079
                            CHANNELS 3 Zrotation Xrotation Yrotation
                            JOINT RightFinger0
                            {
                                OFFSET  -2.044660  -2.323490   3.252850
                                CHANNELS 3 Zrotation Xrotation Yrotation
                                JOINT RightFinger01
                                {
                                    OFFSET  -3.088140   0.000000   0.000000
                                    CHANNELS 3 Zrotation Xrotation Yrotation
                                    JOINT RightFinger02
                                    {
                                        OFFSET  -2.639460   0.000000   0.000000
                                        CHANNELS 3 Zrotation Xrotation Yrotation
                                        End Site
                                        {
                                            OFFSET  -2.582190   0.000000   0.000000
                                        }
                                    }
                                }
                            }
                            JOINT RightFinger1
                            {
                                OFFSET  -8.364480   0.000000   3.252850
                                CHANNELS 3 Zrotation Xrotation Yrotation
                                JOINT RightFinger11
                                {
                                    OFFSET  -4.646930   0.000000   0.000000
                                    CHANNELS 3 Zrotation Xrotation Yrotation
                                    JOINT RightFinger12
                                    {
                                        OFFSET  -2.323470   0.000000   0.000000
                                        CHANNELS 3 Zrotation Xrotation Yrotation
                                        End Site
                                        {
                                            OFFSET  -2.273050   0.000000   0.000000
                                        }
                                    }
                                }
                            }
                            JOINT RightFinger2
                            {
                                OFFSET  -8.364480   0.000000   1.078090
                                CHANNELS 3 Zrotation Xrotation Yrotation
                                JOINT RightFinger21
                                {
                                    OFFSET  -5.111620   0.000000   0.000000
                                    CHANNELS 3 Zrotation Xrotation Yrotation
                                    JOINT RightFinger22
                                    {
                                        OFFSET  -2.788160   0.000000   0.000000
                                        CHANNELS 3 Zrotation Xrotation Yrotation
                                        End Site
                                        {
                                            OFFSET  -2.727660   0.000000   0.000000
                                        }
                                    }
                                }
                            }
                            JOINT RightFinger3
                            {
                                OFFSET  -7.899780   0.000000  -1.078090
                                CHANNELS 3 Zrotation Xrotation Yrotation
                                JOINT RightFinger31
                                {
                                    OFFSET  -4.646930   0.000000   0.000000
                                    CHANNELS 3 Zrotation Xrotation Yrotation
                                    JOINT RightFinger32
                                    {
                                        OFFSET  -2.323470   0.000000   0.000000
                                        CHANNELS 3 Zrotation Xrotation Yrotation
                                        End Site
                                        {
                                            OFFSET  -2.273050   0.000000   0.000000
                                        }
                                    }
                                }
                            }
                            JOINT RightFinger4
                            {
                                OFFSET  -7.435090   0.000000  -3.252850
                                CHANNELS 3 Zrotation Xrotation Yrotation
                                JOINT RightFinger41
                                {
                                    OFFSET  -3.717550   0.000000   0.000000
                                    CHANNELS 3 Zrotation Xrotation Yrotation
                                    JOINT RightFinger42
                                    {
                                        OFFSET  -1.858770   0.000000   0.000000
                                        CHANNELS 3 Zrotation Xrotation Yrotation
                                        End Site
                                        {
                                            OFFSET  -1.818440   0.000000   0.000000
                                        }
                                    }
                                }
                            }
                        }
                    }
                }
            }
        }
    }
    JOINT LeftHip
    {
        OFFSET   9.783040   0.000000   0.000000
        CHANNELS 3 Zrotation Xrotation Yrotation
        JOINT LeftKnee
        {
            OFFSET   0.000032 -41.789100  -0.002222
            CHANNELS 3 Zrotation Xrotation Yrotation
            JOINT LeftAnkle
            {
                OFFSET   0.000087 -41.133200  -0.000135
                CHANNELS 3 Zrotation Xrotation Yrotation
                JOINT LeftToe
                {
                    OFFSET   0.000000  -6.358960  14.674500
                    CHANNELS 3 Zrotation Xrotation Yrotation
                    End Site
                    {
                        OFFSET   0.000000   0.000000   3.913200
                    }
                }
            }
        }
    }
    JOINT RightHip
    {
        OFFSET  -9.783040   0.000000   0.000000
        CHANNELS 3 Zrotation Xrotation Yrotation
        JOINT RightKnee
        {
            OFFSET   0.000047 -41.789100  -0.000896
            CHANNELS 3 Zrotation Xrotation Yrotation
            JOINT RightAnkle
            {
                OFFSET  -0.000117 -41.133300  -0.000248
                CHANNELS 3 Zrotation Xrotation Yrotation
                JOINT RightToe
                {
                    OFFSET   0.000000  -6.358970  14.674500
                    CHANNELS 3 Zrotation Xrotation Yrotation
                    End Site
                    {
                        OFFSET   0.000000   0.000000   3.913200
                    }
                }
            }
        }
    }
}
MOTION
Frames: 5
Frame Time:   0.016667
 -8.860500  88.291600   1.308530  -2.813630 -18.246900   2.486480   3.711070   8.592810  -1.798590   7.829100  17.043700  -4.234810   0.203832  -1.099440   0.001255   0.335391  -2.229070   9.464890  -5.953470  -5.025540  -0.049408 -55.520400 -23.874500 -59.636300   4.831750 -30.950800 -20.448800  -2.192640 -55.297000 -12.122500  37.070600  22.659200 -64.215200 -18.485000   0.002996   0.001052  -4.242480  -0.001617   0.007732 -25.697000   8.402250 -16.890600 -22.045000   0.005550   0.003200 -15.431500  -0.005173   0.003053 -27.237100   3.439410  -6.648400 -28.891500   0.002955   0.002973 -19.241800   0.003508   0.004900 -27.744500  -5.128130   9.640980 -33.200600   0.007153   0.003676 -22.111500   0.004148   0.002486 -25.705500  -4.779220   9.815780 -39.174300   0.010396   0.003526 -26.090100  -0.001368  -0.000146   2.637260  -7.986460   9.297020  35.666100 -27.439500  46.558000 -15.953100 -15.385000  15.608600 -16.427700 -67.274500  17.788500 -51.339700  34.221800  67.359800  -0.124583  -0.004104  -0.000834  -5.062300  -0.002027   0.004697  18.553700   6.474510  18.569400  16.046800   0.002871  -0.006306  11.232800   0.003764  -0.001776  19.796100   5.027210  13.682500  20.399600   0.004276  -0.000630  13.586200   0.001928  -0.004322  20.253500   4.245170  11.358900  20.675100   0.002602  -0.011545  13.769600   0.000750  -0.007531  19.071500   2.297360   6.612450  28.806300   0.003397  -0.000183  19.185000   0.003554   0.000407   7.286540   7.971370   0.918370   6.690600  22.853600   3.764650  -8.020440 -10.193900  -0.261979   0.000000   0.000000   0.000000   9.451810  13.988000  -3.874970   1.477620   6.807310  -8.295110  -5.072850  -4.862610  -4.002240   0.000000   0.000000   0.000000
 -8.824580  88.296800   1.350090  -2.852190 -18.195800   2.398340   3.704430   8.584770  -1.802370   7.815620  17.027600  -4.240720   0.204952  -1.086570   0.000917   0.337233  -2.202870   9.454780  -5.960880  -5.022500  -0.054136 -55.582500 -23.873500 -59.572700   4.861690 -30.780400 -20.654900  -2.173110 -55.105000 -11.971000  37.274600  22.959100 -64.322500 -18.580100   0.003056   0.001121  -4.290020  -0.001619   0.015896 -25.775700   8.342460 -16.724800 -22.093600   0.005606   0.003163 -15.465500  -0.005173   0.003036 -27.257900   3.372970  -6.515180 -28.956700   0.003123   0.002974 -19.285200   0.003667   0.005006 -27.732500  -5.128430   9.650080 -33.070100   0.007361   0.003661 -22.024700   0.004256   0.002555 -25.782800  -4.794900   9.818380 -39.293100   0.010571   0.003558 -26.169200  -0.001373  -0.000134   2.647620  -7.952270   9.293970  35.810000 -27.470100  46.641500 -15.927400 -15.255600  15.806800 -16.573700 -67.134700  17.604900 -51.334000  34.255500  67.469300   0.051624  -0.004253  -0.000782  -4.974200  -0.002103   0.004699  18.614700   6.485440  18.538600  16.097100   0.002999  -0.006305  11.268000   0.003873  -0.001771  19.822200   5.031130  13.673700  20.425800   0.004444  -0.000631  13.603600   0.002029  -0.004286  20.274900   4.245910  11.333100  20.696100   0.002772  -0.011566  13.783600   0.000812  -0.007516  19.131900   2.296250   6.586680  28.895800   0.003556  -0.000190  19.244600   0.003670   0.000439   7.283720   7.959940   0.936326   6.682590  22.866300   3.782450  -8.010320 -10.235600  -0.204658  -0.000000   0.000000   0.000000   9.431680  13.983200  -3.886090   1.480530   6.776220  -8.261880  -5.052790  -4.862350  -3.931530   0.000000   0.000000   0.000000
 -8.785610  88.297300   1.388890  -2.898530 -18.154000   2.297150   3.699530   8.586150  -1.805440   7.806240  17.030300  -4.246280   0.197122  -1.086680   0.000576   0.325410  -2.203180   9.458310  -5.970090  -5.048760  -0.050897 -55.616600 -23.810200 -59.449600   4.908070 -30.589900 -20.881400  -2.083910 -54.831000 -11.724800  37.556600  23.384400 -64.506400 -18.764100   0.003108   0.001059  -4.382040  -0.001613   0.018706 -25.844900   8.305680 -16.600400 -22.142700   0.005671   0.003123 -15.499800  -0.005177   0.003025 -27.289300   3.324820  -6.414220 -29.079900   0.003307   0.002966 -19.367300   0.003820   0.005113 -27.766800  -5.124700   9.629740 -33.327900   0.007585   0.003628 -22.196400   0.004360   0.002617 -25.921800  -4.808060   9.791260 -39.502200   0.010743   0.003587 -26.308500  -0.001376  -0.000135   2.664840  -7.938230   9.303030  35.906200 -27.450500  46.702900 -15.873100 -15.127700  16.000300 -16.611200 -66.946700  17.525400 -51.367000  34.278000  67.493200   0.237039  -0.004395  -0.000732  -4.881490  -0.002187   0.004692  18.637900   6.475280  18.502100  16.111500   0.003139  -0.006309  11.278100   0.003981  -0.001770  19.840800   5.034040  13.667500  20.444500   0.004605  -0.000628  13.616000   0.002127  -0.004256  20.300500   4.230230  11.270800  20.717800   0.002940  -0.011584  13.798100   0.000874  -0.007510  19.174800   2.295380   6.568480  28.959500   0.003730  -0.000199  19.287100   0.003780   0.000477   7.286740   7.962480   0.963847   6.671600  22.873200   3.805660  -8.000990 -10.276400  -0.152033  -0.000000   0.000000   0.000000   9.410970  13.980100  -3.893000   1.486820   6.750830  -8.223140  -5.024990  -4.862430  -3.858230  -0.000000   0.000000   0.000000
 -8.744270  88.297800   1.425200  -2.947420 -18.115400   2.191660   3.692460   8.591260  -1.808900   7.792690  17.040600  -4.252730   0.182939  -1.087500   0.000234   0.300933  -2.205460   9.464700  -5.980070  -5.091640  -0.031779 -55.623000 -23.694700 -59.318300   4.966550 -30.336900 -21.076800  -1.897390 -54.446600 -11.360000  37.876500  23.854300 -64.716500 -19.007500   0.003159   0.000998  -4.503740  -0.001607   0.019318 -25.906300   8.250960 -16.464400 -22.171900   0.005738   0.003085 -15.520300  -0.005181   0.003014 -27.327900   3.269880  -6.298960 -29.226700   0.003499   0.002958 -19.465000   0.003974   0.005219 -27.841900  -5.115350   9.582950 -33.935900   0.007819   0.003592 -22.601300   0.004463   0.002713 -26.101000  -4.818960   9.732750 -39.768500   0.010914   0.003614 -26.485800  -0.001381  -0.000137   2.687120  -7.925770   9.331470  36.003200 -27.423900  46.766500 -15.797100 -14.995600  16.179700 -16.582800 -66.706300  17.488200 -51.416300  34.316400  67.520900   0.460653  -0.004543  -0.000681  -4.769670  -0.002273   0.004686  18.664200   6.466150  18.438000  16.130000   0.003281  -0.006313  11.291000   0.004088  -0.001770  19.897100   5.042520  13.648700  20.500900   0.004764  -0.000626  13.653600   0.002223  -0.004224  20.368900   4.200640  11.160800  20.778700   0.003109  -0.011602  13.838700   0.000937  -0.007503  19.244200   2.293620   6.538960  29.062400   0.003909  -0.000207  19.355600   0.003889   0.000514   7.292900   7.965040   0.981908   6.654770  22.883000   3.839060  -7.991630 -10.318600  -0.100208   0.000000   0.000000   0.000000   9.388400  13.977600  -3.898290   1.494400   6.728780  -8.181610  -4.994320  -4.861760  -3.784260   0.000000   0.000000   0.000000
 -8.701590  88.302600   1.459370  -2.996850 -18.075700   2.085680   3.680250   8.601150  -1.813550   7.769250  17.060600  -4.261170   0.168099  -1.107140  -0.000109   0.275287  -2.245500   9.472840  -5.988220  -5.122270   0.015236 -55.624800 -23.547500 -59.212200   5.019840 -29.998600 -21.222700  -1.588170 -53.903900 -10.847800  38.215500  24.303700 -64.899600 -19.312700   0.003217   0.001187  -4.656380  -0.001609   0.012467 -25.839600   8.128660 -16.275800 -22.093300   0.005804   0.003053 -15.465200  -0.005176   0.002998 -27.362500   3.186650  -6.130600 -29.345700   0.003680   0.002961 -19.544300   0.004136   0.005322 -27.949400  -5.100330   9.512640 -34.871400   0.007939   0.003561 -23.224300   0.004567   0.002877 -26.316400  -4.824370   9.652910 -40.086900   0.011083   0.003638 -26.697800  -0.001388  -0.000133   2.715040  -7.905180   9.384030  36.030400 -27.338900  46.789100 -15.720200 -14.886300  16.333000 -16.509100 -66.424500  17.457100 -51.552000  34.440600  67.676200   0.794703  -0.004723  -0.000629  -4.602650  -0.002355   0.004688  18.781200   6.470980  18.320500  16.222800   0.003416  -0.006309  11.355900   0.004198  -0.001773  20.067100   5.067300  13.591900  20.671300   0.004922  -0.000632  13.767100   0.002318  -0.004183  20.545600   4.169530  10.980400  20.945800   0.003283  -0.011627  13.950000   0.001000  -0.007485  19.410100   2.289230   6.467760  29.308900   0.004087  -0.000212  19.519700   0.004001   0.000543   7.295880   7.963560   0.976064   6.626060  22.905400   3.894650  -7.979660 -10.366700  -0.044854  -0.000000   0.000000   0.000000   9.365870  13.975500  -3.900040   1.500850   6.711800  -8.138030  -4.963780  -4.859520  -3.714390  -0.000000   0.000000  -0.000000
